<svg width="54" height="54" viewBox="0 0 54 54" fill="none" xmlns="http://www.w3.org/2000/svg">
<path d="M48.825 17.0325C48.554 16.7662 48.2199 16.573 47.854 16.4707C47.4881 16.3684 47.1023 16.3604 46.7325 16.4475C46.2451 16.5589 45.7474 16.6192 45.2475 16.6275C43.4573 16.6275 41.7404 15.9163 40.4745 14.6505C39.2087 13.3846 38.4975 11.6677 38.4975 9.87748C38.504 9.38488 38.5643 8.89446 38.6775 8.41499C38.7669 8.04358 38.7602 7.65552 38.6582 7.28739C38.5561 6.91926 38.362 6.58318 38.0942 6.31081C37.8263 6.03844 37.4935 5.83876 37.1271 5.73059C36.7607 5.62241 36.3728 5.6093 36 5.69249C33.7606 6.1869 31.7295 7.36324 30.1863 9.0596C28.643 10.756 27.6635 12.889 27.3825 15.165C26.1605 14.8146 24.8963 14.6329 23.625 14.625C20.3824 14.6231 17.2475 15.7885 14.7935 17.9079C12.3394 20.0273 10.7302 22.9592 10.26 26.1675C8.69318 26.6038 7.29988 27.5145 6.2715 28.7746C5.24312 30.0346 4.63012 31.5822 4.51669 33.2047C4.40327 34.8271 4.79499 36.4449 5.63804 37.8358C6.48109 39.2267 7.73412 40.3224 9.225 40.9725C9.51115 41.0881 9.8164 41.1491 10.125 41.1525C10.6452 41.1567 11.1508 40.9806 11.5557 40.654C11.9607 40.3275 12.24 39.8707 12.3461 39.3615C12.4522 38.8522 12.3785 38.3219 12.1377 37.8608C11.8968 37.3997 11.5036 37.0363 11.025 36.8325C10.4213 36.5754 9.90705 36.1456 9.54678 35.5972C9.18651 35.0488 8.99629 34.4061 9 33.75C9 32.8549 9.35558 31.9964 9.98851 31.3635C10.6214 30.7306 11.4799 30.375 12.375 30.375C12.9717 30.375 13.544 30.1379 13.966 29.716C14.3879 29.294 14.625 28.7217 14.625 28.125C14.625 25.738 15.5732 23.4489 17.261 21.761C18.9489 20.0732 21.2381 19.125 23.625 19.125C25.3713 19.1209 27.0792 19.6379 28.53 20.61C30.1656 21.6859 31.4058 23.2657 32.0625 25.11C32.1911 25.4966 32.4223 25.8411 32.7314 26.1066C33.0405 26.3721 33.4159 26.5487 33.8175 26.6175C34.8988 26.7346 35.9165 27.1864 36.7284 27.91C37.5404 28.6336 38.1061 29.5927 38.3465 30.6534C38.5869 31.7141 38.4899 32.8233 38.0693 33.8263C37.6486 34.8292 36.9251 35.6757 36 36.2475C35.4987 36.5757 35.1484 37.0896 35.026 37.6761C34.9037 38.2626 35.0193 38.8737 35.3475 39.375C35.6757 39.8762 36.1896 40.2266 36.7761 40.349C37.3626 40.4713 37.9737 40.3557 38.475 40.0275C39.8047 39.1284 40.891 37.914 41.637 36.4927C42.383 35.0714 42.7654 33.4876 42.75 31.8825C42.7616 30.3142 42.3827 28.7678 41.6475 27.3825C43.5798 26.8429 45.3299 25.7904 46.7124 24.3366C48.0949 22.8828 49.0582 21.0819 49.5 19.125C49.5759 18.7476 49.5537 18.357 49.4355 17.9907C49.3173 17.6243 49.1071 17.2944 48.825 17.0325ZM38.4975 23.3775C38.183 23.403 37.867 23.403 37.5525 23.3775C37.0612 23.0409 36.5418 22.7473 36 22.5C35.0778 20.4791 33.6713 18.717 31.905 17.37V16.5375C31.9049 15.5625 32.1161 14.5991 32.5239 13.7135C32.9317 12.8279 33.5266 12.0412 34.2675 11.4075C34.6159 13.8079 35.7308 16.0314 37.4459 17.7466C39.161 19.4617 41.3846 20.5766 43.785 20.925C43.1429 21.7029 42.3346 22.3269 41.4196 22.7514C40.5046 23.1758 39.5061 23.3897 38.4975 23.3775ZM24.9975 32.2425C24.6254 31.991 24.1866 31.8566 23.7375 31.8566C23.2884 31.8566 22.8496 31.991 22.4775 32.2425C22.14 32.4225 16.875 36 16.875 41.625C16.875 43.4152 17.5862 45.1321 18.852 46.398C20.1179 47.6638 21.8348 48.375 23.625 48.375C25.4152 48.375 27.1321 47.6638 28.398 46.398C29.6638 45.1321 30.375 43.4152 30.375 41.625C30.375 36 25.0875 32.4 24.885 32.2425H24.9975ZM23.625 43.875C23.0283 43.875 22.456 43.6379 22.034 43.216C21.6121 42.794 21.375 42.2217 21.375 41.625C21.5171 39.8911 22.3231 38.279 23.625 37.125C24.9269 38.279 25.7329 39.8911 25.875 41.625C25.875 42.2217 25.6379 42.794 25.216 43.216C24.794 43.6379 24.2217 43.875 23.625 43.875Z" fill="#16AB3B"/>
</svg>
