<svg width="183" height="36" viewBox="0 0 183 36" fill="none" xmlns="http://www.w3.org/2000/svg">
<path d="M159.421 11.8706C160.974 11.9815 162.25 12.1479 162.416 12.8136C162.582 13.4792 162.582 14.0339 162.582 15.0324V31.6733C162.582 32.6163 162.582 33.171 162.416 33.8921C162.25 34.5578 161.029 34.7242 159.421 34.8351V35.9445H170.736V34.8351C169.183 34.7242 167.907 34.5578 167.741 33.8921C167.575 33.2265 167.575 32.6718 167.575 31.6733V24.8505H170.237C173.066 29.7874 175.285 35.8891 177.393 35.8891H182.552V35.2234C181.553 34.5578 179.723 32.228 178.059 29.7319L174.397 24.1294C177.504 23.0755 179.723 20.4129 179.723 17.1402C179.723 12.7581 176.117 10.7612 172.012 10.7612H159.421V11.8706ZM167.575 12.1479H170.071C172.567 12.1479 174.287 13.4792 174.287 17.3621C174.287 20.7458 173.233 23.4083 170.071 23.4083H167.575V12.1479Z" fill="white"/>
<path d="M142.669 35.6116H158.589L159.476 30.1756H158.644C157.368 32.8381 156.814 34.5022 153.042 34.5022C150.601 34.5022 149.492 34.3358 149.492 32.0616V25.2942H151.988C153.985 25.2942 154.595 26.6255 154.706 28.2896H155.538V21.3004H154.706C154.706 23.02 153.874 24.1848 151.988 24.1848H149.492V15.8089H153.263C155.371 15.8089 156.092 17.4175 156.536 19.5253H157.368V14.6995H142.669V15.6425C144 15.7534 145.054 15.8643 145.165 16.419C145.276 16.9737 145.276 17.4175 145.276 18.2495V32.117C145.276 32.9491 145.276 33.3928 145.165 33.9475C145.054 34.5022 144 34.6132 142.669 34.7241V35.6116Z" fill="white"/>
<path d="M123.532 19.3035H122.755C122.2 17.4175 121.091 15.3651 118.761 15.3651C117.43 15.3651 115.877 16.1972 115.877 18.416C115.877 20.5238 117.874 21.5778 121.146 24.0184C124.197 26.3482 125.14 28.0123 125.14 30.2865C125.14 33.9476 121.479 35.9445 117.208 35.9445C115.488 35.9445 114.157 35.7781 112.992 35.4452V35.5562H104.672V34.6132C106.336 34.6132 106.613 33.6702 106.114 32.3944L104.894 28.8998H97.5716L96.3513 32.4499C95.9075 33.7257 96.3513 34.6132 97.7381 34.6132V35.5562H91.9137V34.6132C92.8012 34.6132 93.8552 34.114 94.5208 32.7827C95.5747 30.5639 99.2357 20.8012 101.732 14.2557H103.673C105.448 19.1926 109.109 29.0107 110.219 31.8952C110.496 32.6718 110.884 33.3374 111.328 33.8366V29.9537H112.16C112.659 32.6718 114.379 34.7796 116.931 34.7796C118.872 34.7796 120.592 33.171 120.592 31.0077C120.592 29.0107 119.704 27.6795 115.544 24.9614C113.325 23.5192 111.439 21.8551 111.439 19.248C111.439 16.3081 114.268 14.2003 118.428 14.2003C120.37 14.2003 121.812 14.2557 123.31 14.6995C123.532 14.8104 123.587 14.9768 123.587 15.1432V18.5269L124.197 14.5885H142.059L142.891 19.248H142.059C140.949 17.362 140.339 15.6979 137.732 15.6979H135.18V32.0061C135.18 32.8382 135.18 33.2819 135.291 33.8366C135.402 34.3913 136.401 34.5023 137.787 34.6132V35.5562H128.357V34.6132C129.689 34.5023 130.743 34.3913 130.854 33.8366C130.965 33.2819 130.965 32.8382 130.965 32.0061V15.8089H128.468C125.917 15.8089 125.307 17.473 124.197 19.359H123.532V19.3035ZM98.0154 27.624H104.284L101.344 18.9152H101.288L98.0154 27.624ZM92.1356 30.0092C90.9152 32.6163 88.8074 34.946 85.3683 34.946C80.0431 34.946 77.7689 30.5084 77.8243 24.7395C77.8798 19.359 80.376 15.2542 85.2018 15.2542C89.2511 15.2542 90.8043 18.0277 91.2481 20.302H92.0801V16.4191C92.0801 15.9198 91.7473 15.5315 90.9152 15.2542C89.473 14.755 88.0863 14.2557 85.3128 14.2557C76.604 14.2557 73.2203 20.3574 73.2203 24.9614C73.2203 32.5608 78.2681 35.889 84.9245 35.889C87.4761 35.889 89.6394 35.2788 90.6934 34.8905C91.5809 34.6132 92.0801 34.4468 92.1356 33.8366L92.9676 29.9537H92.1356V30.0092Z" fill="white"/>
<path d="M39.2726 15.587V14.644H49.8119C53.1956 14.644 56.191 16.3081 56.191 19.9137C56.191 22.6317 54.3605 24.8505 51.7534 25.738L54.8042 30.453C55.9136 32.1171 57.0785 33.7257 57.966 34.5578C58.7981 34.4468 59.3528 34.2804 59.4637 33.8921C59.5746 33.3374 59.5746 32.8937 59.5746 32.0616V18.1941C59.5746 17.3621 59.5746 16.9183 59.4637 16.3636C59.3528 15.8089 58.2988 15.698 56.9676 15.587V14.644H71.6671V19.4699H70.835C70.3913 17.3621 69.6702 15.7534 67.5623 15.7534H63.7904V24.1294H66.2865C68.1725 24.1294 69.0045 22.9645 69.0045 21.245H69.8366V28.2342H69.0045C68.9491 26.5701 68.3389 25.2388 66.2865 25.2388H63.7904V32.0061C63.7904 34.2804 64.8998 34.4468 67.3404 34.4468C71.1124 34.4468 71.7226 32.7827 72.9429 30.1202H73.775L72.8874 35.5562H54.305C52.53 35.5562 50.6995 30.453 48.3697 26.3482H46.1509V32.0061C46.1509 32.8382 46.1509 33.2819 46.2619 33.8366C46.3728 34.3913 47.4267 34.5023 48.758 34.6132V35.5562H39.3281V34.6132C40.6594 34.5023 41.7133 34.3913 41.8243 33.8366C41.9352 33.2819 41.9352 32.8382 41.9352 32.0061V18.1387C41.9352 17.3066 41.9352 16.8628 41.8243 16.3081C41.6024 15.8644 40.5485 15.698 39.2726 15.587ZM46.0954 15.8644V25.2388H48.2033C50.8104 25.2388 51.7534 23.02 51.7534 20.191C51.7534 16.9738 50.3112 15.8644 48.2033 15.8644H46.0954Z" fill="white"/>
<path fill-rule="evenodd" clip-rule="evenodd" d="M22.4099 24.0185C22.4099 31.1186 25.4607 34.8906 28.8444 34.8906C33.0046 34.8906 34.8906 31.0077 34.8906 25.4052C34.8906 18.416 31.5624 15.3652 28.3451 15.3652C24.4623 15.3652 22.4099 18.9707 22.4099 24.0185ZM39.4946 24.6287C39.4946 31.5624 34.0586 36 28.0678 36C23.2419 36 17.8059 32.2835 17.7504 25.3498C17.7504 19.2481 22.6872 14.3667 29.1217 14.3667C35.2789 14.3667 39.4946 19.359 39.4946 24.6287ZM3.10632 11.5932C2.93991 10.8721 1.6641 10.7057 0 10.5948V9.42989H18.416V15.4761H17.4176C16.8629 12.8136 15.9199 10.8166 13.3128 10.8166H8.54237V22.077H12.0924C14.4222 22.077 15.4206 20.5794 15.4761 18.4715H16.4746V27.1803H15.4761C15.3652 25.1279 14.5886 23.4638 12.0924 23.4638H8.54237V31.2296C8.54237 32.228 8.54237 32.7827 8.65331 33.5039C8.81972 34.225 10.0955 34.3914 11.7596 34.5023V35.6672H0V34.5023C1.6641 34.3914 2.93991 34.1695 3.10632 33.5039C3.27273 32.7827 3.27273 32.228 3.27273 31.2296V13.8675C3.27273 12.869 3.27273 12.3143 3.10632 11.5932ZM36.2774 5.10324C35.5008 5.10324 34.5578 6.65639 34.3914 7.71032C36.1109 8.04314 36.6656 6.43451 36.6656 5.65794C36.6656 5.26965 36.4438 5.10324 36.2774 5.10324ZM35.2789 10.7612C35.7781 10.7612 36.3328 10.3729 37.0539 9.81818L37.3313 10.2065L36.0555 11.094C35.3898 11.5932 34.6687 11.7596 34.2804 11.7596C32.8382 11.7596 32.6163 10.0401 32.6163 9.26348C32.6163 7.10015 34.3914 4.65948 36.7766 4.65948C37.4422 4.65948 37.886 5.04777 37.886 5.87982C37.886 7.21109 36.2774 8.54237 34.3359 8.04314C34.0586 9.37442 34.2804 10.7612 35.2789 10.7612ZM27.0139 11.5932H25.4052L27.0693 3.05085C27.1248 2.82897 27.1803 2.60709 27.1248 2.44068C27.0693 2.2188 26.8475 2.2188 26.681 2.2188L26.0709 2.27427L26.1818 1.88598L29.0663 1.60863L27.7904 7.48844H27.8459C28.6225 6.15716 30.2866 4.65948 31.4515 4.65948C32.0616 4.65948 32.339 5.04777 32.0616 6.26811L31.2851 9.81818C31.1741 10.2619 31.2296 10.4838 31.396 10.4838C31.4515 10.4838 31.6179 10.4284 31.7288 10.3729L32.2835 10.0401L32.4499 10.4284L30.0647 11.7596C29.8193 11.7106 29.7042 11.5312 29.6041 11.3753C29.5911 11.355 29.5783 11.3351 29.5655 11.3159C29.51 11.094 29.51 10.7612 29.621 10.2065L30.3421 6.93374C30.5085 6.32357 30.6194 5.71341 30.1757 5.71341C29.3991 5.71341 27.735 7.98767 27.2357 10.4838L27.0139 11.5932Z" fill="white"/>
<path d="M40.4376 5.65794H144.277C151.045 5.65794 157.368 0 157.368 0V12.7581C157.368 12.7581 151.045 7.10015 144.277 7.10015H40.4376V5.65794Z" fill="#16AB3B"/>
<path fill-rule="evenodd" clip-rule="evenodd" d="M24.4068 4.82581H26.1818L26.1264 5.15863L25.7381 5.49145H24.2958L23.5747 9.26341C23.2974 10.5947 23.6857 10.8166 24.074 10.8166C24.3513 10.8166 24.906 10.5947 25.1834 10.4837L25.2943 10.9275L22.7982 11.7596C21.9106 11.7596 21.5778 11.0939 21.7997 9.87358L22.6317 5.49145H21.4669L21.6333 4.82581H22.7982L23.02 3.55001C23.4638 3.43907 23.963 3.10625 24.2958 2.71796H24.8505L24.4068 4.82581Z" fill="white"/>
<path d="M0 5.65786H19.9692V7.04461H0V5.65786Z" fill="#16AB3B"/>
</svg>
